<?xml version="1.0" standalone="no"?>
<!DOCTYPE svg PUBLIC "-//W3C//DTD SVG 20010904//EN"
 "http://www.w3.org/TR/2001/REC-SVG-20010904/DTD/svg10.dtd">
<svg version="1.0" xmlns="http://www.w3.org/2000/svg"
 width="80.000000pt" height="80.000000pt" viewBox="0 0 80.000000 80.000000"
 preserveAspectRatio="xMidYMid meet">
<metadata>
Created by potrace 1.11, written by Peter Selinger 2001-2013
</metadata>
<g transform="translate(0.000000,80.000000) scale(0.100000,-0.100000)"
fill="#000000" stroke="none">
<path d="M300 777 c-79 -23 -141 -60 -195 -119 -51 -55 -96 -145 -94 -186 1
-9 7 3 15 28 38 123 119 210 239 255 69 27 202 26 270 0 181 -69 282 -242 245
-421 -44 -210 -242 -336 -464 -294 -128 24 -241 123 -283 249 -12 36 -22 58
-22 49 -3 -75 103 -220 196 -270 204 -109 459 -26 557 182 27 58 31 75 31 155
0 82 -3 97 -33 157 -42 86 -129 168 -209 198 -71 27 -191 35 -253 17z"/>
<path d="M308 743 c-10 -2 -18 -9 -18 -14 0 -14 16 -11 30 6 7 8 11 14 9 14
-2 -1 -12 -3 -21 -6z"/>
<path d="M380 740 c0 -5 4 -10 9 -10 6 0 13 5 16 10 3 6 -1 10 -9 10 -9 0 -16
-4 -16 -10z"/>
<path d="M470 731 c0 -5 9 -7 20 -4 11 3 20 7 20 9 0 2 -9 4 -20 4 -11 0 -20
-4 -20 -9z"/>
<path d="M220 705 c-7 -9 -10 -18 -7 -21 3 -3 10 4 17 15 13 25 8 27 -10 6z"/>
<path d="M556 701 c-3 -5 5 -8 18 -7 13 0 22 4 19 9 -6 10 -31 9 -37 -2z"/>
<path d="M390 661 c0 -23 39 -36 46 -16 8 20 -4 35 -27 35 -12 0 -19 -7 -19
-19z"/>
<path d="M150 655 c-11 -13 -11 -18 0 -28 10 -9 11 -9 6 1 -4 7 -2 19 4 27 7
8 10 15 7 15 -2 0 -10 -7 -17 -15z"/>
<path d="M319 648 c0 -20 -2 -21 -11 -7 -17 25 -61 4 -52 -25 6 -19 5 -19 -10
-7 -14 12 -19 11 -36 -4 -18 -17 -19 -20 -6 -34 14 -13 18 -13 38 6 30 27 82
53 108 53 13 0 20 7 20 20 0 31 -50 28 -51 -2z"/>
<path d="M456 654 c-7 -17 8 -34 30 -34 7 0 15 7 18 16 8 20 8 20 -20 28 -15
5 -24 2 -28 -10z"/>
<path d="M624 648 c-5 -7 -2 -9 8 -5 9 3 22 0 29 -6 11 -10 11 -9 0 6 -16 20
-27 22 -37 5z"/>
<path d="M522 638 c-17 -17 -15 -26 9 -38 15 -9 24 -8 35 1 16 13 19 -2 4 -17
-7 -7 -5 -16 7 -26 14 -13 21 -14 34 -4 16 11 16 13 0 32 -31 38 -77 64 -89
52z"/>
<path d="M354 613 c-14 -3 -24 -14 -27 -29 l-4 -25 28 27 c25 23 36 38 27 33
-2 -1 -13 -4 -24 -6z"/>
<path d="M450 549 c0 -48 3 -59 13 -52 6 5 29 22 50 38 l39 29 -39 23 c-58 35
-63 32 -63 -38z"/>
<path d="M87 583 c-11 -10 -8 -20 7 -26 10 -4 12 0 9 14 -6 21 -7 22 -16 12z"/>
<path d="M700 575 c7 -9 15 -13 17 -11 7 7 -7 26 -19 26 -6 0 -6 -6 2 -15z"/>
<path d="M161 551 c-8 -14 -7 -22 5 -32 14 -11 18 -10 30 6 10 13 11 22 3 32
-16 18 -26 16 -38 -6z"/>
<path d="M612 541 c-20 -13 5 -50 30 -43 21 5 21 7 8 33 -12 21 -18 23 -38 10z"/>
<path d="M211 509 c-33 -53 -29 -59 40 -59 l60 0 -19 28 c-11 15 -29 35 -40
46 -21 18 -21 18 -41 -15z"/>
<path d="M50 498 c0 -9 5 -20 11 -23 17 -11 18 -2 3 19 -12 17 -14 17 -14 4z"/>
<path d="M131 488 c-8 -21 3 -34 30 -37 13 -2 18 43 6 51 -19 12 -27 9 -36
-14z"/>
<path d="M720 506 c0 -2 7 -9 15 -16 12 -10 15 -10 15 4 0 9 -7 16 -15 16 -8
0 -15 -2 -15 -4z"/>
<path d="M408 482 c-23 -3 -28 -8 -28 -29 l0 -26 28 24 c15 13 29 25 31 27 9
5 -6 7 -31 4z"/>
<path d="M648 482 c-30 -6 -19 -44 15 -50 11 -2 17 3 17 15 0 26 -13 39 -32
35z"/>
<path d="M585 457 c17 -14 32 -21 34 -15 4 13 -9 24 -39 33 -24 6 -24 6 5 -18z"/>
<path d="M3 405 c0 -27 2 -38 4 -22 2 15 2 37 0 50 -2 12 -4 0 -4 -28z"/>
<path d="M120 415 c0 -18 5 -25 20 -25 15 0 20 7 20 25 0 18 -5 25 -20 25 -15
0 -20 -7 -20 -25z"/>
<path d="M320 417 c0 -20 5 -27 20 -27 11 0 20 4 20 8 0 5 -9 17 -20 27 -20
18 -20 17 -20 -8z"/>
<path d="M442 413 c8 -10 40 -48 70 -85 61 -73 64 -73 91 -5 l16 37 -63 0
c-67 0 -76 6 -76 51 0 14 -7 19 -27 19 -24 0 -25 -2 -11 -17z"/>
<path d="M40 405 c0 -8 4 -15 10 -15 5 0 7 7 4 15 -4 8 -8 15 -10 15 -2 0 -4
-7 -4 -15z"/>
<path d="M640 396 c0 -15 7 -26 20 -29 17 -4 20 0 20 24 0 22 -5 29 -20 29
-14 0 -20 -7 -20 -24z"/>
<path d="M746 405 c4 -8 8 -15 10 -15 2 0 4 7 4 15 0 8 -4 15 -10 15 -5 0 -7
-7 -4 -15z"/>
<path d="M180 379 c0 -24 16 -41 35 -37 14 2 13 7 -9 27 -18 17 -26 20 -26 10z"/>
<path d="M370 343 c-30 -25 -70 -58 -89 -73 l-34 -28 41 -21 c23 -12 46 -21
52 -21 6 0 10 25 10 60 0 33 3 61 8 61 4 1 20 2 36 3 26 1 30 6 32 34 1 18 2
32 1 31 -1 0 -27 -21 -57 -46z"/>
<path d="M137 372 c-12 -2 -16 -9 -13 -19 3 -8 6 -18 6 -23 0 -4 9 -6 20 -3
33 9 21 52 -13 45z"/>
<path d="M627 338 c-6 -20 6 -37 25 -38 8 0 32 40 26 45 -2 1 -13 5 -24 9 -17
5 -23 2 -27 -16z"/>
<path d="M732 320 c14 -22 24 -19 15 5 -4 8 -11 15 -17 15 -6 0 -6 -7 2 -20z"/>
<path d="M50 315 c0 -8 7 -15 16 -15 14 0 14 3 4 15 -7 8 -14 15 -16 15 -2 0
-4 -7 -4 -15z"/>
<path d="M158 313 c-21 -5 -22 -10 -4 -42 8 -15 16 -20 20 -12 4 6 12 11 18
11 7 0 6 -5 -1 -14 -16 -19 0 -44 46 -75 33 -21 35 -22 49 -4 14 17 15 17 9
-4 -4 -16 -1 -23 14 -28 24 -7 41 1 41 18 -1 18 -92 59 -104 47 -16 -16 -30
-11 -16 5 10 12 8 20 -11 43 -13 16 -28 36 -34 44 -5 8 -18 13 -27 11z"/>
<path d="M601 281 c-16 -28 14 -51 36 -28 13 13 14 19 3 31 -17 21 -27 20 -39
-3z"/>
<path d="M698 233 c3 -18 7 -21 13 -11 12 18 11 25 -4 31 -10 4 -13 -2 -9 -20z"/>
<path d="M80 240 c0 -6 7 -13 15 -17 24 -9 27 1 5 15 -13 8 -20 8 -20 2z"/>
<path d="M559 234 c-7 -8 -25 -22 -40 -29 -20 -11 -26 -20 -22 -35 6 -23 8
-24 34 -9 15 7 18 16 13 32 -6 19 -5 20 9 9 12 -10 21 -11 36 -2 24 12 26 21
9 38 -16 16 -23 15 -39 -4z"/>
<path d="M439 213 c-19 -21 -20 -25 -6 -20 10 4 22 7 27 7 4 0 10 9 13 20 7
27 -5 25 -34 -7z"/>
<path d="M644 165 c-2 -21 1 -24 12 -14 11 9 11 15 3 25 -15 18 -14 18 -15
-11z"/>
<path d="M139 168 c15 -21 31 -23 31 -6 0 6 -3 8 -7 5 -3 -4 -13 -1 -22 6 -14
11 -14 10 -2 -5z"/>
<path d="M437 173 c-4 -3 -7 -14 -7 -23 0 -13 7 -16 29 -12 22 3 28 8 24 23
-5 18 -33 26 -46 12z"/>
<path d="M367 163 c-15 -14 -6 -33 17 -33 15 0 26 7 29 20 4 16 0 20 -17 20
-13 0 -26 -3 -29 -7z"/>
<path d="M572 109 c-12 -19 -11 -19 8 -9 11 6 18 15 15 21 -8 12 -8 12 -23
-12z"/>
<path d="M207 108 c2 -5 10 -8 18 -8 8 0 16 3 18 8 3 4 -5 7 -18 7 -13 0 -21
-3 -18 -7z"/>
<path d="M306 80 c-17 -6 -18 -7 -3 -13 9 -3 19 -2 23 4 9 15 2 18 -20 9z"/>
<path d="M480 73 c-13 -15 -12 -16 4 -10 10 4 20 7 22 7 2 0 4 5 4 10 0 15
-13 12 -30 -7z"/>
<path d="M400 65 c-11 -13 -10 -14 4 -9 9 3 16 10 16 15 0 13 -6 11 -20 -6z"/>
</g>
</svg>
